<?xml version="1.0" encoding="UTF-8" standalone="no"?>
<svg
   version="1.0"
   width="1024.000000pt"
   height="1024.000000pt"
   viewBox="0 0 1024.000000 1024.000000"
   preserveAspectRatio="xMidYMid meet"
   id="svg66"
   sodipodi:docname="logo.svg"
   inkscape:version="1.2.2 (b0a8486541, 2022-12-01)"
   xmlns:inkscape="http://www.inkscape.org/namespaces/inkscape"
   xmlns:sodipodi="http://sodipodi.sourceforge.net/DTD/sodipodi-0.dtd"
   xmlns="http://www.w3.org/2000/svg"
   xmlns:svg="http://www.w3.org/2000/svg">
  <defs
     id="defs70" />
  <sodipodi:namedview
     id="namedview68"
     pagecolor="#ffffff"
     bordercolor="#000000"
     borderopacity="0.25"
     inkscape:showpageshadow="2"
     inkscape:pageopacity="0.0"
     inkscape:pagecheckerboard="0"
     inkscape:deskcolor="#d1d1d1"
     inkscape:document-units="pt"
     showgrid="false"
     inkscape:zoom="0.75219727"
     inkscape:cx="460.65044"
     inkscape:cy="686.65498"
     inkscape:window-width="1276"
     inkscape:window-height="1378"
     inkscape:window-x="1280"
     inkscape:window-y="42"
     inkscape:window-maximized="1"
     inkscape:current-layer="svg66" />
  <g
     transform="matrix(0.20088362,0,0,-0.19913341,-534.12317,1499.5439)"
     fill="#000000"
     stroke="none"
     id="g64"
     style="fill:#2684ff;fill-opacity:1">
    <path
       d="m 4470,7099 c -86,-17 -196,-91 -249,-169 -55,-80 -65,-118 -66,-236 v -111 l 43,-84 c 51,-98 111,-153 219,-199 57,-25 82,-29 153,-30 99,0 163,24 244,92 l 48,41 19,-24 c 24,-31 169,-297 169,-310 0,-5 3,-9 8,-9 4,0 18,-23 31,-50 l 24,-49 -53,-103 c -29,-57 -56,-105 -59,-108 -6,-5 -218,-431 -455,-912 l -98,-198 h -249 c -137,0 -249,4 -249,8 0,11 63,157 110,257 21,44 57,124 79,178 23,54 58,133 77,175 73,157 83,178 103,230 12,29 32,74 45,100 48,96 50,92 -52,92 -77,0 -90,-3 -95,-17 -13,-41 -88,-215 -135,-313 -27,-58 -75,-166 -107,-240 -31,-74 -62,-144 -69,-155 -7,-11 -23,-47 -36,-80 -13,-33 -44,-105 -70,-160 -26,-55 -69,-147 -95,-205 -26,-58 -62,-136 -80,-175 -19,-38 -51,-109 -73,-156 l -39,-86 -77,-7 c -213,-19 -402,-150 -499,-347 -42,-85 -48,-105 -59,-207 -22,-203 17,-347 136,-495 64,-80 116,-122 211,-170 216,-109 478,-84 675,64 173,130 269,374 242,609 -7,59 -8,98 -2,105 12,14 93,178 159,320 28,61 57,122 65,136 39,75 89,176 134,272 l 51,107 h 666 666 l 11,-32 c 14,-42 126,-258 143,-278 8,-8 18,-33 23,-55 10,-42 50,-128 82,-180 24,-37 50,-94 102,-215 23,-52 46,-101 52,-109 7,-8 11,-68 12,-150 1,-106 6,-150 22,-201 80,-259 241,-402 511,-456 136,-27 278,-5 416,63 87,42 215,168 246,240 50,115 78,239 79,346 v 47 h -65 -65 v -58 c 0,-78 -34,-206 -70,-265 -17,-27 -30,-52 -30,-56 0,-12 -66,-72 -107,-97 -102,-63 -164,-85 -252,-91 -128,-8 -173,4 -340,92 -47,26 -121,102 -121,126 0,4 -13,28 -30,52 -35,53 -60,148 -60,236 0,171 100,344 253,433 91,53 172,78 253,78 35,0 64,4 64,8 0,5 -9,27 -20,50 -11,22 -20,46 -20,53 0,6 -14,34 -30,61 -17,27 -42,79 -56,116 -14,37 -38,87 -54,112 -16,25 -50,92 -75,150 -26,58 -75,164 -110,235 -34,72 -92,191 -128,265 -151,314 -245,507 -523,1068 -162,326 -294,595 -294,598 0,4 -12,25 -27,48 -16,22 -43,74 -62,113 -19,40 -38,70 -42,67 -4,-2 -10,-18 -14,-35 -4,-17 -22,-58 -41,-91 -19,-33 -34,-62 -34,-64 0,-1 -51,-108 -114,-236 -62,-128 -123,-254 -135,-280 -11,-27 -26,-48 -31,-48 -5,0 -36,53 -69,118 -32,64 -82,160 -111,212 l -52,95 7,76 c 7,91 -13,202 -49,264 -53,90 -156,166 -261,194 -47,13 -131,13 -195,0 z m 184,-166 c 164,-59 223,-291 105,-413 -112,-115 -260,-116 -374,-4 -61,61 -81,115 -72,202 9,94 56,160 149,206 62,31 122,34 192,9 z m 961,-471 c 373,-736 885,-1783 885,-1808 0,-19 -522,-21 -538,-1 -6,6 -58,109 -117,227 -58,118 -110,223 -116,233 -58,105 -139,266 -139,276 0,6 -11,29 -25,51 -13,21 -50,90 -81,152 -32,62 -86,165 -121,229 -34,64 -63,123 -63,130 0,8 47,108 104,224 111,224 156,325 156,350 0,32 17,12 55,-63 z m -386,-720 c 11,-16 27,-48 37,-73 10,-24 32,-71 50,-104 17,-33 79,-152 136,-265 58,-113 113,-218 121,-235 16,-30 125,-248 178,-355 15,-30 25,-58 22,-62 -2,-5 -256,-8 -564,-8 -461,0 -561,2 -565,14 -3,7 58,139 134,292 77,153 184,369 238,479 53,110 101,202 106,203 4,2 8,11 8,20 0,19 61,121 72,122 4,0 16,-13 27,-28 z M 6575,4482 c 16,-11 195,-379 195,-400 0,-6 -12,-15 -27,-19 -67,-19 -159,-81 -249,-168 l -95,-92 -19,27 c -11,15 -65,121 -121,236 -57,115 -114,229 -129,254 -14,25 -32,65 -39,89 -7,23 -15,49 -18,57 -4,11 32,14 209,16 117,2 229,4 248,5 19,1 40,-1 45,-5 z m -2225,-19 c 0,-18 -11,-42 -100,-228 -32,-66 -87,-181 -122,-255 -36,-74 -72,-141 -81,-148 -14,-12 -21,-7 -52,37 -42,57 -189,162 -256,183 -64,19 -65,8 41,233 26,55 57,121 68,148 l 21,47 h 240 c 219,0 241,-2 241,-17 z m -760,-534 c 25,-5 82,-28 128,-51 168,-82 272,-249 272,-433 0,-65 -17,-136 -46,-200 -22,-45 -90,-139 -125,-172 -49,-45 -154,-95 -232,-110 -71,-15 -84,-15 -154,1 -141,31 -236,93 -320,208 -95,130 -111,356 -35,488 67,115 123,174 196,206 23,10 43,22 47,26 8,11 148,46 189,47 19,0 55,-4 80,-10 z"
       id="path60"
       style="fill:#2684ff;fill-opacity:1" />
  </g>
</svg>
